<svg width="89" height="89" viewBox="0 0 89 89" fill="none" xmlns="http://www.w3.org/2000/svg">
<path d="M89 31.15V22.25H66.75V0H57.85V22.25H48.95V0H40.05V22.25H31.15V0H22.25V22.25H0V31.15H22.25V40.05H0V48.95H22.25V57.85H0V66.75H22.25V89H31.15V66.75H40.05V89H48.95V66.75H57.85V89H66.75V66.75H89V57.85H66.75V48.95H89V40.05H66.75V31.15H89Z" fill="#FF9800"/>
<path d="M8.90021 17.8001V71.2001C8.90021 76.0951 12.9052 80.1001 17.8002 80.1001H71.2002C76.0952 80.1001 80.1002 76.0951 80.1002 71.2001V17.8001C80.1002 12.9051 76.0952 8.90005 71.2002 8.90005H17.8002C12.9052 8.90005 8.90021 12.9051 8.90021 17.8001Z" fill="#4CAF50"/>
<path d="M60.0751 60.075H28.9251C26.4776 60.075 24.4751 58.0725 24.4751 55.625V33.375C24.4751 30.9275 26.4776 28.925 28.9251 28.925H60.0751C62.5226 28.925 64.5251 30.9275 64.5251 33.375V55.625C64.5251 58.0725 62.5226 60.075 60.0751 60.075Z" fill="#37474F"/>
</svg>
